<?xml version="1.0" encoding="utf-8"?>
<!-- Generator: Adobe Illustrator 18.1.1, SVG Export Plug-In . SVG Version: 6.00 Build 0)  -->
<svg version="1.1" id="Layer_1" xmlns="http://www.w3.org/2000/svg" xmlns:xlink="http://www.w3.org/1999/xlink" x="0px" y="0px"
	 viewBox="0 0 99 87" enable-background="new 0 0 99 87" xml:space="preserve">
<path fill="#FFFFFF" d="M94.2,27.6L51.6,3.5c-1.2-0.7-3.1-0.7-4.2,0L4.8,27.6c-1.2,0.7-2.1,2.4-2.1,3.7v35.2c0,1.4,1.1,2.8,2.4,3.2
	L47.1,85c1.3,0.4,3.4,0.4,4.7,0L94,69.7c1.3-0.4,2.4-1.8,2.4-3.2V31.3C96.3,30,95.4,28.3,94.2,27.6z"/>
<g>
	<polygon fill="#212F37" points="39.2,55.2 38.1,58.7 41.3,58.7 40.2,55.2 	"/>
	<path fill="#212F37" d="M42.4,39.9c0.2-0.2,0.2-0.5,0.2-1.3c0-0.8,0-1.1-0.2-1.3c-0.1-0.1-0.4-0.2-1-0.2H38v3h3.4
		C42,40.1,42.2,40.1,42.4,39.9z"/>
	<path fill="#212F37" d="M59.7,24.1c0-0.1-0.1-0.2-0.2-0.2c-0.1,0-0.3,0.1-0.3,0.1c-1.1,0.8-2.2,1.8-3,2.7c0.1,0.2,0.3,0.2,0.4,0.2
		C57.5,26.9,59.7,24.6,59.7,24.1z"/>
	<path fill="#212F37" d="M57.1,37.3H55c-0.6,0-0.9,0-1,0.2c-0.2,0.2-0.3,0.6-0.3,3.9c0,3.3,0.1,3.8,0.3,3.9c0.1,0.1,0.3,0.2,1,0.2
		h2.2c0.6,0,0.9,0,1-0.2c0.2-0.2,0.3-0.6,0.3-3.9c0-3.3-0.1-3.8-0.3-3.9C58,37.3,57.8,37.3,57.1,37.3z"/>
	<path fill="#212F37" d="M57.3,54.7h-3.4v3h3.4c0.6,0,0.9,0,1-0.2c0.2-0.2,0.2-0.5,0.2-1.3s0-1.1-0.2-1.3
		C58.1,54.7,57.9,54.7,57.3,54.7z"/>
	<path fill="#212F37" d="M74,54.7h-3.6l0,8.4H74c1,0,1.3-0.1,1.6-0.3c0.2-0.2,0.3-0.9,0.3-3.9c0-3-0.1-3.7-0.3-3.9
		C75.3,54.8,75,54.7,74,54.7z"/>
	<path fill="#212F37" d="M96.3,26.6L51.7,1.4c-1.2-0.7-3.2-0.7-4.4,0L2.7,26.6c-1.2,0.7-2.2,2.5-2.2,3.9v36.8c0,1.4,1.1,2.9,2.5,3.3
		l44,16.1c1.4,0.4,3.6,0.4,5,0L96,70.6c1.4-0.4,2.5-1.9,2.5-3.3V30.5C98.5,29.1,97.5,27.3,96.3,26.6z M36.8,17.2
		c1.7-0.7,4.3-0.4,7.5-0.4c7.7,0,15.1-0.5,15.5-0.5c0.2,0,0.3-0.2,1.7,1c0.2,0.2,0.8,0.5,0.8,0.8c0,0.2-0.7,0.3-1.1,0.4
		c-1.2,0.1-2.7,0.3-4.2,0.4c-1.1,0.3-2,1-2.7,1.7c-2.2,2.1-3.8,3.2-4.2,3.8c1.1-0.5,1.7-0.9,2.5-0.9c0.5,0,1.5,0.5,1.5,1.2
		c0,0.2-0.1,0.3-0.3,0.5c-0.8,0.7-3.3,2.6-3.3,3.5c0,0.2,0.1,0.2,0.2,0.2c0.3,0,1.3-0.7,2.3-1.4c0.6-0.4,1.1-1.2,1.3-1.5
		c0.5-0.7,1.1-1.4,1.8-2c1.3-1.2,2.3-1.7,2.9-1.7c0.3,0,0.8,0.3,1.2,0.8c0.6,0.5,0.6,0.8,0.6,1c0,1.6-2.7,3.8-3.9,3.8
		c-0.3,0-0.8-0.2-1.2-0.6c-0.3,0.5-0.5,0.9-0.5,1.2c0,0.3,0.1,0.6,0.6,0.6c0.3,0,0.7-0.1,0.9-0.2c3-1.1,4.6-2.6,4.7-2.6
		c0.1,0,0.1,0.1,0.1,0.2c0,0.2-0.7,0.9-1.3,1.5c-1.2,1.1-2.8,2.3-4.4,2.3c-0.7,0-2.2-1.6-2.3-2.3c-1,0.9-2.7,2.1-3.4,2.1
		c-0.9,0-1.4-1.2-1.4-2c0-1,1.3-2.3,2.4-3.4c-1.3,0.5-2.7,1.8-5,4.6c-0.1,0.1-0.4,0.8-0.6,0.8c-0.3,0-1.4-0.9-1.4-1.5
		c0-0.1,0-0.2,0.1-0.4c2-3,6.3-6.9,9-9.3c-0.7,0-1.3,0-1.7,0c-0.5,0-2,1.2-3.1,2.3c-1.3,1.3-4.6,4.5-6.8,7.3
		c-1.3,1.7-1.1,2.2-1.4,2.2c-0.7,0-1.8-2-1.8-2.3c0-1,3-3.9,4.5-5.3c2.5-2.4,4-3.7,4.3-3.9c0.1-0.1,0.4-0.3,0.4-0.3
		c-3.5-0.6-7.2-1.7-9.4-1.1c-2.8,0.8-4.2,6.8-0.2,5.3c1.7-0.6,3.3-1.9,4.2-3.1c0.4-0.5,0.6-0.2,0.2,0.4c-1.3,2-3.2,3.8-6.9,4
		C31.9,24.6,32.6,19,36.8,17.2z M63,41.4c0,4.2-0.5,5.9-1.4,6.7c-0.6,0.6-1.2,0.8-2.8,0.8h-5.6c-1.6,0-2.2-0.2-2.8-0.8
		c-0.9-0.9-1.4-2.6-1.4-6.7c0-4.2,0.5-5.9,1.4-6.7c0.6-0.6,1.2-0.8,2.8-0.8h5.6c1.6,0,2.2,0.2,2.8,0.8C62.5,35.5,63,37.2,63,41.4z
		 M32,45.5h1.6v-8.4H32v-3.4h11.7c1.3,0,2.1,0.2,2.7,0.8c0.7,0.7,0.9,1.5,0.9,3.4c0,2.7-0.7,3.3-2.5,3.7l2.3,3.9h1.4v3.4h-4.7
		l-3.3-5.7H38v2.3h1.6v3.4H32V45.5z M17.7,45.5h4.1v-8.4h-4.1v-3.4h13.1v3.4h-4.1v8.4h4.1v3.4H17.7V45.5z M29.7,66.4h-7.8v-3.4h1.7
		v-2.3l-4.4-6h-1.5v-3.4h7.8v3.3h-1.3l1.7,2.6H26l1.8-2.6h-1.3v-3.3H34v3.4h-1.5L28,60.6v2.4h1.7C29.7,63.1,29.7,66.4,29.7,66.4z
		 M78.9,65.2c-0.9,0.9-2.1,1.2-4.2,1.2h-8.5h-1.8h-4.7l-3.3-5.7h-2.5v2.3h1.6v3.4h-7h-0.6h-6.8v-3.3h1.4l-0.4-1.3h-4.9l-0.3,1.3h1.4
		v3.3h-7.5v-3.4h1.7l4-11.8h6.8l4,11.8h0.6h0.6h1v-8.4h-1.6v-3.4h11.7c1.3,0,2.1,0.2,2.7,0.8c0.7,0.7,0.9,1.5,0.9,3.4
		c0,2.7-0.7,3.3-2.5,3.7l2.3,3.9h1.5H66v-8.4h-1.6v-3.4h10.3c2.2,0,3.3,0.3,4.2,1.2c1,1,1.6,2.6,1.6,6.4
		C80.5,62.6,80,64.2,78.9,65.2z M81.3,37.2h-1.6v11.7h-5l-5.3-8.6v5.2h1.6l0,3.4h-7.2v-3.4h1.6v-8.4h-1.6v-3.4h6.9l5,7.7v-4.3h-1.5
		v-3.4h7L81.3,37.2L81.3,37.2z"/>
</g>
</svg>
