<?xml version="1.0" encoding="utf-8"?>
<!-- Generator: Adobe Illustrator 18.1.1, SVG Export Plug-In . SVG Version: 6.00 Build 0)  -->
<svg version="1.1" id="Layer_1" xmlns="http://www.w3.org/2000/svg" xmlns:xlink="http://www.w3.org/1999/xlink" x="0px" y="0px"
	 width="155px" height="137px" viewBox="0 0 155 137" enable-background="new 0 0 155 137" xml:space="preserve">
<g>
	<g>
		<path fill="#024454" d="M147.5,106.5c0.9-0.3,1.8-1.4,1.8-2.4v-56c0-1.2-1-2.9-2-3.5L79.5,6.2c-0.5-0.3-1.2-0.5-2-0.5
			S76,5.9,75.6,6.2L7.7,44.5c-1,0.6-2,2.4-2,3.5v56c0,0.9,0.9,2.1,1.8,2.4l0.2,0.1l67,24.4c1.5,0.4,4.3,0.4,5.8,0L147.5,106.5z"/>
		<path fill="#31A2AE" d="M150.2,39.7L82.3,1.4c-1.3-0.8-3-1.2-4.8-1.2c-1.8,0-3.5,0.4-4.8,1.2L4.9,39.7l-0.1,0
			c-2.7,1.6-4.7,5.2-4.7,8.4v56c0,3.3,2.5,6.7,5.7,7.7l67,24.4l0.2,0c1.3,0.4,2.9,0.6,4.6,0.6c1.7,0,3.3-0.2,4.6-0.6l67.1-24.5
			c3.2-1,5.7-4.4,5.7-7.7v-56C154.9,44.9,152.9,41.3,150.2,39.7z M74.6,131l-67-24.4l-0.2-0.1c-0.9-0.3-1.8-1.4-1.8-2.4v-56
			c0-1.2,1-2.9,2-3.5L75.6,6.2c0.5-0.3,1.2-0.4,1.9-0.4s1.5,0.2,2,0.5l67.8,38.3c1,0.6,2,2.4,2,3.5v56c0,0.9-0.9,2.1-1.8,2.4
			L80.4,131C78.9,131.4,76.1,131.4,74.6,131z"/>
	</g>
	<path fill="#31A2AE" d="M75.6,77.4L55.7,56.3c-2-2.2-5.6-1.7-7,0.9L33.1,86.1c-0.3,0.6-0.5,1.4-0.5,2.1v4.2c0,2.4,2,4.4,4.4,4.4
		h78.5c4,0,5.9-5,2.9-7.7c-8.7-7.6-19.1-16.6-24.6-21.4c-2.1-1.8-5.3-1.3-6.7,1.1l-4.5,7.8C81.1,79.1,77.6,79.5,75.6,77.4z"/>
	<path fill="#31A2AE" d="M112.5,59.2c5.3,0,9.5-4.3,9.5-9.5c0-5.2-4.3-9.5-9.5-9.5c-5.2,0-9.5,4.3-9.5,9.5
		C103,55,107.2,59.2,112.5,59.2z"/>
</g>
</svg>
